solid 
facet normal 0 -0 -1
 outer loop
  vertex -5.974545e-17 -2.9561067 0.19782715
  vertex -1.0141535 -2.9561067 0.19782715
  vertex -0.59655064 -2.8711116 0.19782715
 endloop
endfacet
facet normal 0 0 1
 outer loop
  vertex -0.6539021 -0.47404915 1.3859044
  vertex -5.974545e-17 -0.47404915 1.3859044
  vertex -5.974545e-17 1.3391813 1.3859044
 endloop
endfacet
facet normal -0 0 1
 outer loop
  vertex -0.6539021 -0.47404915 1.3859044
  vertex -5.974545e-17 1.3391813 1.3859044
  vertex -0.6539021 1.3391813 1.3859044
 endloop
endfacet
facet normal -0.89075255 0 0.4544887
 outer loop
  vertex -0.6539021 -0.47404915 1.3859044
  vertex -0.8768782 1.3674173 0.94889355
  vertex -0.8768782 -1.1578572 0.94889355
 endloop
endfacet
facet normal -1 0 0
 outer loop
  vertex -1.0141535 1.3834015 0.72888553
  vertex -1.0141535 1.8276155 0.72888553
  vertex -1.0141535 1.8267537 0.55344594
 endloop
endfacet
facet normal -1 0 0
 outer loop
  vertex -1.0141535 1.3834015 0.72888553
  vertex -1.0141535 1.8267537 0.55344594
  vertex -1.0141535 1.3604165 0.55344594
 endloop
endfacet
facet normal -0.847735 0.03947382 0.5289492
 outer loop
  vertex -1.0141535 1.8276155 0.72888553
  vertex -0.8768782 1.8276155 0.94889355
  vertex -0.8768782 2.9826188 0.8626993
 endloop
endfacet
facet normal -0.81518346 0.029872095 0.5784321
 outer loop
  vertex -1.0141535 1.8276155 0.72888553
  vertex -0.8768782 2.9826188 0.8626993
  vertex -1.0141535 3.0515742 0.66567636
 endloop
endfacet
facet normal -1 0 0
 outer loop
  vertex -1.0141535 1.8276155 0.72888553
  vertex -1.0141535 3.0515742 0.66567636
  vertex -1.0141535 3.050712 0.55344594
 endloop
endfacet
facet normal -1 0 0
 outer loop
  vertex -1.0141535 1.8276155 0.72888553
  vertex -1.0141535 3.050712 0.55344594
  vertex -1.0141535 1.8267537 0.55344594
 endloop
endfacet
facet normal 0 0.07441992 0.99722695
 outer loop
  vertex -0.8768782 1.8276155 0.94889355
  vertex -5.974545e-17 1.8276155 0.94889355
  vertex -5.974545e-17 2.9826188 0.8626993
 endloop
endfacet
facet normal -0 0.07441992 0.99722695
 outer loop
  vertex -0.8768782 1.8276155 0.94889355
  vertex -5.974545e-17 2.9826188 0.8626993
  vertex -0.8768782 2.9826188 0.8626993
 endloop
endfacet
facet normal -1 -0 0
 outer loop
  vertex -1.0141535 -2.003688 0.6616943
  vertex -1.0141535 -1.1578572 0.72888553
  vertex -1.0141535 -1.5897478 0.6616943
 endloop
endfacet
facet normal -1 0 0
 outer loop
  vertex -1.0141535 -3.0074246 0.4351722
  vertex -1.0141535 -2.8711116 0.19782715
  vertex -1.0141535 -2.9561067 0.19782715
 endloop
endfacet
facet normal 0 -0.98395354 -0.17842497
 outer loop
  vertex -0.59655064 -1.349741 0.41067457
  vertex -1.0141535 -1.349741 0.41067457
  vertex -1.0141535 -1.2904048 0.08345549
 endloop
endfacet
facet normal -0 -0.98395354 -0.17842497
 outer loop
  vertex -0.59655064 -1.349741 0.41067457
  vertex -1.0141535 -1.2904048 0.08345549
  vertex -0.59655064 -1.2904048 0.08345549
 endloop
endfacet
facet normal -1 -0 -0
 outer loop
  vertex -1.0141535 3.150474 0.16621798
  vertex -1.0141535 3.050712 0.36773703
  vertex -1.0141535 3.1744168 0.36773703
 endloop
endfacet
facet normal -0 0 -1
 outer loop
  vertex -1.0141535 -2.8711116 0.19782715
  vertex -0.59655064 -2.217796 0.19782715
  vertex -0.59655064 -2.8711116 0.19782715
 endloop
endfacet
facet normal 0 0 -1
 outer loop
  vertex -0.59655064 -2.8711116 0.19782715
  vertex -5.974545e-17 -2.8711116 0.19782715
  vertex -5.974545e-17 -2.9561067 0.19782715
 endloop
endfacet
facet normal -0.8483962 0 0.5293617
 outer loop
  vertex -1.0141535 1.3834015 0.72888553
  vertex -0.8768782 1.3674173 0.94889355
  vertex -0.8768782 1.8276155 0.94889355
 endloop
endfacet
facet normal -1 0 0
 outer loop
  vertex -1.0141535 -1.1578572 0.72888553
  vertex -1.0141535 1.3834015 0.72888553
  vertex -1.0141535 1.3604165 0.55344594
 endloop
endfacet
facet normal -1 0 0
 outer loop
  vertex -1.0141535 -1.1578572 0.72888553
  vertex -1.0141535 1.3604165 0.55344594
  vertex -1.0141535 -1.349741 0.41067457
 endloop
endfacet
facet normal -0.84839624 0 0.5293617
 outer loop
  vertex -1.0141535 -1.1578572 0.72888553
  vertex -0.8768782 1.3674173 0.94889355
  vertex -1.0141535 1.3834015 0.72888553
 endloop
endfacet
facet normal 0 0 -1
 outer loop
  vertex -1.0141535 -1.5897478 0.6616943
  vertex -0.59655064 -1.5897478 0.6616943
  vertex -0.59655064 -2.003688 0.6616943
 endloop
endfacet
facet normal 0 0 -1
 outer loop
  vertex -1.0141535 -1.5897478 0.6616943
  vertex -0.59655064 -2.003688 0.6616943
  vertex -1.0141535 -2.003688 0.6616943
 endloop
endfacet
facet normal -1 -0 0
 outer loop
  vertex -1.0141535 -2.8711116 0.19782715
  vertex -1.0141535 -2.1937408 0.4560201
  vertex -1.0141535 -2.217796 0.19782715
 endloop
endfacet
facet normal -1 -0 -0
 outer loop
  vertex -1.0141535 -2.1937408 0.4560201
  vertex -1.0141535 -2.8702502 0.67716897
  vertex -1.0141535 -2.003688 0.6616943
 endloop
endfacet
facet normal 0 0.9999705 -0.007681484
 outer loop
  vertex -1.0141535 3.0515742 0.66567636
  vertex -5.974545e-17 3.0515742 0.66567636
  vertex -5.974545e-17 3.050712 0.55344594
 endloop
endfacet
facet normal 0 0.9999705 -0.007681484
 outer loop
  vertex -1.0141535 3.0515742 0.66567636
  vertex -5.974545e-17 3.050712 0.55344594
  vertex -1.0141535 3.050712 0.55344594
 endloop
endfacet
facet normal 0 0 -1
 outer loop
  vertex -5.974545e-17 -2.217796 0.19782715
  vertex -0.59655064 -2.8711116 0.19782715
  vertex -0.59655064 -2.217796 0.19782715
 endloop
endfacet
facet normal -0.8474557 -0.04707512 0.52877486
 outer loop
  vertex -0.8768782 -2.8242795 0.80053735
  vertex -0.8768782 -1.1578572 0.94889355
  vertex -1.0141535 -1.1578572 0.72888553
 endloop
endfacet
facet normal -0.6640654 -0.02257048 0.7473337
 outer loop
  vertex -0.8768782 -2.8242795 0.80053735
  vertex -1.0141535 -1.1578572 0.72888553
  vertex -1.0141535 -2.8702502 0.67716897
 endloop
endfacet
facet normal -1 0 0
 outer loop
  vertex -1.0141535 -1.349741 0.41067457
  vertex -1.0141535 1.2175575 0.38481626
  vertex -1.0141535 -1.2904048 0.08345549
 endloop
endfacet
facet normal -1 0 0
 outer loop
  vertex -1.0141535 2.0099964 0.36773703
  vertex -1.0141535 3.050712 0.36773703
  vertex -1.0141535 3.0547028 0.16621798
 endloop
endfacet
facet normal -1 0 0
 outer loop
  vertex -1.0141535 2.0099964 0.36773703
  vertex -1.0141535 3.0547028 0.16621798
  vertex -1.0141535 2.049901 0.10835609
 endloop
endfacet
facet normal 0 -0.7118175 -0.7023645
 outer loop
  vertex -0.59655064 1.8267537 0.55344594
  vertex -1.0141535 1.8267537 0.55344594
  vertex -1.0141535 2.0099964 0.36773703
 endloop
endfacet
facet normal -0 -0.7118175 -0.7023645
 outer loop
  vertex -0.59655064 1.8267537 0.55344594
  vertex -1.0141535 2.0099964 0.36773703
  vertex -0.59655064 2.0099964 0.36773703
 endloop
endfacet
facet normal -1 0 0
 outer loop
  vertex -1.0141535 1.8267537 0.55344594
  vertex -1.0141535 3.050712 0.55344594
  vertex -1.0141535 3.050712 0.36773703
 endloop
endfacet
facet normal -1 0 0
 outer loop
  vertex -1.0141535 1.8267537 0.55344594
  vertex -1.0141535 3.050712 0.36773703
  vertex -1.0141535 2.0099964 0.36773703
 endloop
endfacet
facet normal 0 1 -0
 outer loop
  vertex -1.0141535 3.050712 0.55344594
  vertex -5.974545e-17 3.050712 0.55344594
  vertex -5.974545e-17 3.050712 0.36773703
 endloop
endfacet
facet normal 0 1 -0
 outer loop
  vertex -1.0141535 3.050712 0.55344594
  vertex -5.974545e-17 3.050712 0.36773703
  vertex -1.0141535 3.050712 0.36773703
 endloop
endfacet
facet normal 0 -0.98837173 -0.15205656
 outer loop
  vertex -0.59655064 2.0099964 0.36773703
  vertex -1.0141535 2.0099964 0.36773703
  vertex -1.0141535 2.049901 0.10835609
 endloop
endfacet
facet normal -0 -0.98837173 -0.15205656
 outer loop
  vertex -0.59655064 2.0099964 0.36773703
  vertex -1.0141535 2.049901 0.10835609
  vertex -0.59655064 2.049901 0.10835609
 endloop
endfacet
facet normal -1 -0 -0
 outer loop
  vertex -1.0141535 3.0547028 0.16621798
  vertex -1.0141535 3.050712 0.36773703
  vertex -1.0141535 3.150474 0.16621798
 endloop
endfacet
facet normal 0 0 1
 outer loop
  vertex -1.0141535 3.050712 0.36773703
  vertex -5.974545e-17 3.050712 0.36773703
  vertex -5.974545e-17 3.1744168 0.36773703
 endloop
endfacet
facet normal -1 -0 0
 outer loop
  vertex -1.0141535 -1.349741 0.41067457
  vertex -1.0141535 1.3604165 0.55344594
  vertex -1.0141535 1.2175575 0.38481626
 endloop
endfacet
facet normal -1 0 0
 outer loop
  vertex -1.0141535 -2.8711116 0.4560201
  vertex -1.0141535 -2.1937408 0.4560201
  vertex -1.0141535 -2.8711116 0.19782715
 endloop
endfacet
facet normal -1 0 0
 outer loop
  vertex -1.0141535 -2.8702502 0.67716897
  vertex -1.0141535 -2.1937408 0.4560201
  vertex -1.0141535 -2.8711116 0.4560201
 endloop
endfacet
facet normal 0 0 -1
 outer loop
  vertex -1.0141535 3.150474 0.16621798
  vertex -5.974545e-17 3.150474 0.16621798
  vertex -5.974545e-17 3.0547028 0.16621798
 endloop
endfacet
facet normal 0 -0.1511834 0.98850566
 outer loop
  vertex -1.0141535 -3.0074246 0.4351722
  vertex -5.974545e-17 -3.0074246 0.4351722
  vertex -5.974545e-17 -2.8711116 0.4560201
 endloop
endfacet
facet normal 0 -0.1511834 0.98850566
 outer loop
  vertex -1.0141535 -3.0074246 0.4351722
  vertex -5.974545e-17 -2.8711116 0.4560201
  vertex -1.0141535 -2.8711116 0.4560201
 endloop
endfacet
facet normal -1 0 0
 outer loop
  vertex -1.0141535 -2.8711116 0.4560201
  vertex -1.0141535 -2.8711116 0.19782715
  vertex -1.0141535 -3.0074246 0.4351722
 endloop
endfacet
facet normal -0 -0.9774141 -0.21133311
 outer loop
  vertex -1.0141535 -2.9561067 0.19782715
  vertex -5.974545e-17 -2.9561067 0.19782715
  vertex -5.974545e-17 -3.0074246 0.4351722
 endloop
endfacet
facet normal 0 -0.9774141 -0.21133311
 outer loop
  vertex -1.0141535 -2.9561067 0.19782715
  vertex -5.974545e-17 -3.0074246 0.4351722
  vertex -1.0141535 -3.0074246 0.4351722
 endloop
endfacet
facet normal 0 0.9956879 -0.09276595
 outer loop
  vertex -1.0141535 -2.1937408 0.4560201
  vertex -0.59655064 -2.1937408 0.4560201
  vertex -0.59655064 -2.217796 0.19782715
 endloop
endfacet
facet normal 0 0.9956879 -0.09276595
 outer loop
  vertex -1.0141535 -2.1937408 0.4560201
  vertex -0.59655064 -2.217796 0.19782715
  vertex -1.0141535 -2.217796 0.19782715
 endloop
endfacet
facet normal 0 0 -1
 outer loop
  vertex -1.0141535 -2.217796 0.19782715
  vertex -0.59655064 -2.217796 0.19782715
  vertex -1.0141535 -2.8711116 0.19782715
 endloop
endfacet
facet normal 0 0.734448 -0.6786649
 outer loop
  vertex -1.0141535 -2.003688 0.6616943
  vertex -0.59655064 -2.003688 0.6616943
  vertex -0.59655064 -2.1937408 0.4560201
 endloop
endfacet
facet normal 0 0.734448 -0.6786649
 outer loop
  vertex -1.0141535 -2.003688 0.6616943
  vertex -0.59655064 -2.1937408 0.4560201
  vertex -1.0141535 -2.1937408 0.4560201
 endloop
endfacet
facet normal 0 0.7630016 -0.6463965
 outer loop
  vertex -1.0141535 1.3604165 0.55344594
  vertex -0.59655064 1.3604165 0.55344594
  vertex -0.59655064 1.2175575 0.38481626
 endloop
endfacet
facet normal 0 0.7630016 -0.6463965
 outer loop
  vertex -1.0141535 1.3604165 0.55344594
  vertex -0.59655064 1.2175575 0.38481626
  vertex -1.0141535 1.2175575 0.38481626
 endloop
endfacet
facet normal 0 0.9930159 -0.11798135
 outer loop
  vertex -1.0141535 3.1744168 0.36773703
  vertex -5.974545e-17 3.1744168 0.36773703
  vertex -5.974545e-17 3.150474 0.16621798
 endloop
endfacet
facet normal 0 0.9930159 -0.11798135
 outer loop
  vertex -1.0141535 3.1744168 0.36773703
  vertex -5.974545e-17 3.150474 0.16621798
  vertex -1.0141535 3.150474 0.16621798
 endloop
endfacet
facet normal 0 0.057490136 -0.99834603
 outer loop
  vertex -1.0141535 3.0547028 0.16621798
  vertex -5.974545e-17 3.0547028 0.16621798
  vertex -5.974545e-17 2.049901 0.10835609
 endloop
endfacet
facet normal 0 -0.08867604 0.9960605
 outer loop
  vertex -5.974545e-17 -2.8242795 0.80053735
  vertex -5.974545e-17 -1.1578572 0.94889355
  vertex -0.8768782 -1.1578572 0.94889355
 endloop
endfacet
facet normal 0 -0.08867604 0.9960605
 outer loop
  vertex -5.974545e-17 -2.8242795 0.80053735
  vertex -0.8768782 -1.1578572 0.94889355
  vertex -0.8768782 -2.8242795 0.80053735
 endloop
endfacet
facet normal 0 0.96077144 -0.27734134
 outer loop
  vertex -1.0141535 1.2175575 0.38481626
  vertex -0.59655064 1.2175575 0.38481626
  vertex -0.59655064 1.1305652 0.08345549
 endloop
endfacet
facet normal 0 0.96077144 -0.27734134
 outer loop
  vertex -1.0141535 1.2175575 0.38481626
  vertex -0.59655064 1.1305652 0.08345549
  vertex -1.0141535 1.1305652 0.08345549
 endloop
endfacet
facet normal 0 0 -1
 outer loop
  vertex -1.0141535 1.1305652 0.08345549
  vertex -0.59655064 1.1305652 0.08345549
  vertex -0.59655064 -1.2904048 0.08345549
 endloop
endfacet
facet normal 0 0 -1
 outer loop
  vertex -1.0141535 1.1305652 0.08345549
  vertex -0.59655064 -1.2904048 0.08345549
  vertex -1.0141535 -1.2904048 0.08345549
 endloop
endfacet
facet normal -1 -0 0
 outer loop
  vertex -1.0141535 -1.2904048 0.08345549
  vertex -1.0141535 1.2175575 0.38481626
  vertex -1.0141535 1.1305652 0.08345549
 endloop
endfacet
facet normal -0 -0.7227843 -0.6910737
 outer loop
  vertex -1.0141535 -1.349741 0.41067457
  vertex -0.59655064 -1.349741 0.41067457
  vertex -0.59655064 -1.5897478 0.6616943
 endloop
endfacet
facet normal 0 -0.7227843 -0.6910737
 outer loop
  vertex -1.0141535 -1.349741 0.41067457
  vertex -0.59655064 -1.5897478 0.6616943
  vertex -1.0141535 -1.5897478 0.6616943
 endloop
endfacet
facet normal 0 0 -1
 outer loop
  vertex -1.0141535 1.8267537 0.55344594
  vertex -0.59655064 1.8267537 0.55344594
  vertex -0.59655064 1.3604165 0.55344594
 endloop
endfacet
facet normal 0 0 -1
 outer loop
  vertex -1.0141535 1.8267537 0.55344594
  vertex -0.59655064 1.3604165 0.55344594
  vertex -1.0141535 1.3604165 0.55344594
 endloop
endfacet
facet normal 0 -0.99999243 0.0038951125
 outer loop
  vertex -1.0141535 -2.8711116 0.4560201
  vertex -5.974545e-17 -2.8711116 0.4560201
  vertex -5.974545e-17 -2.8702502 0.67716897
 endloop
endfacet
facet normal 0 -0.99999243 0.0038951125
 outer loop
  vertex -1.0141535 -2.8711116 0.4560201
  vertex -5.974545e-17 -2.8702502 0.67716897
  vertex -1.0141535 -2.8702502 0.67716897
 endloop
endfacet
facet normal 0 0.9438622 0.3303393
 outer loop
  vertex -0.8768782 2.9826188 0.8626993
  vertex -5.974545e-17 2.9826188 0.8626993
  vertex -5.974545e-17 3.0515742 0.66567636
 endloop
endfacet
facet normal -0 0.9438622 0.3303393
 outer loop
  vertex -0.8768782 2.9826188 0.8626993
  vertex -5.974545e-17 3.0515742 0.66567636
  vertex -1.0141535 3.0515742 0.66567636
 endloop
endfacet
facet normal 0 0.6667871 0.7452483
 outer loop
  vertex -0.6539021 1.3391813 1.3859044
  vertex -5.974545e-17 1.3391813 1.3859044
  vertex -5.974545e-17 1.8276155 0.94889355
 endloop
endfacet
facet normal 0 -0.53850615 0.84262156
 outer loop
  vertex -0.8768782 -1.1578572 0.94889355
  vertex -5.974545e-17 -1.1578572 0.94889355
  vertex -0.6539021 -0.47404915 1.3859044
 endloop
endfacet
facet normal -0 -0 -1
 outer loop
  vertex -1.0141535 -2.9561067 0.19782715
  vertex -1.0141535 -2.8711116 0.19782715
  vertex -0.59655064 -2.8711116 0.19782715
 endloop
endfacet
facet normal 0 -0.9370575 0.34917513
 outer loop
  vertex -1.0141535 -2.8702502 0.67716897
  vertex -5.974545e-17 -2.8702502 0.67716897
  vertex -5.974545e-17 -2.8242795 0.80053735
 endloop
endfacet
facet normal 0 -0.9370575 0.3491751
 outer loop
  vertex -1.0141535 -2.8702502 0.67716897
  vertex -5.974545e-17 -2.8242795 0.80053735
  vertex -0.8768782 -2.8242795 0.80053735
 endloop
endfacet
facet normal -0.8907525 0 0.45448872
 outer loop
  vertex -0.8768782 1.8276155 0.94889355
  vertex -0.8768782 1.3674173 0.94889355
  vertex -0.6539021 1.3391813 1.3859044
 endloop
endfacet
facet normal -0 -0.12239892 -0.99248105
 outer loop
  vertex -0.59655064 -1.2904048 0.08345549
  vertex -5.974545e-17 -1.2904048 0.08345549
  vertex -0.59655064 -2.217796 0.19782715
 endloop
endfacet
facet normal -0.89075243 0 0.45448872
 outer loop
  vertex -0.6539021 1.3391813 1.3859044
  vertex -0.8768782 1.3674173 0.94889355
  vertex -0.6539021 -0.47404915 1.3859044
 endloop
endfacet
facet normal 0 0.027075496 -0.99963343
 outer loop
  vertex -0.59655064 2.049901 0.10835609
  vertex -5.974545e-17 2.049901 0.10835609
  vertex -5.974545e-17 1.1305652 0.08345549
 endloop
endfacet
facet normal 0 0.027075496 -0.99963343
 outer loop
  vertex -0.59655064 2.049901 0.10835609
  vertex -5.974545e-17 1.1305652 0.08345549
  vertex -0.59655064 1.1305652 0.08345549
 endloop
endfacet
facet normal 0 -0.12239892 -0.99248105
 outer loop
  vertex -5.974545e-17 -1.2904048 0.08345549
  vertex -5.974545e-17 -2.217796 0.19782715
  vertex -0.59655064 -2.217796 0.19782715
 endloop
endfacet
facet normal 0 -0.53850615 0.8426216
 outer loop
  vertex -0.6539021 -0.47404915 1.3859044
  vertex -5.974545e-17 -1.1578572 0.94889355
  vertex -5.974545e-17 -0.47404915 1.3859044
 endloop
endfacet
facet normal -1 -0 0
 outer loop
  vertex -1.0141535 -1.5897478 0.6616943
  vertex -1.0141535 -1.1578572 0.72888553
  vertex -1.0141535 -1.349741 0.41067457
 endloop
endfacet
facet normal -0.84839624 0 0.5293617
 outer loop
  vertex -0.8768782 -1.1578572 0.94889355
  vertex -0.8768782 1.3674173 0.94889355
  vertex -1.0141535 -1.1578572 0.72888553
 endloop
endfacet
facet normal -0 -0 -1
 outer loop
  vertex -0.59655064 -1.2904048 0.08345549
  vertex -0.59655064 1.1305652 0.08345549
  vertex -5.974545e-17 1.1305652 0.08345549
 endloop
endfacet
facet normal -0 0 -1
 outer loop
  vertex -0.59655064 -1.2904048 0.08345549
  vertex -5.974545e-17 1.1305652 0.08345549
  vertex -5.974545e-17 -1.2904048 0.08345549
 endloop
endfacet
facet normal 0 0 1
 outer loop
  vertex -5.974545e-17 3.1744168 0.36773703
  vertex -1.0141535 3.1744168 0.36773703
  vertex -1.0141535 3.050712 0.36773703
 endloop
endfacet
facet normal -0.84839624 0 0.5293617
 outer loop
  vertex -1.0141535 1.3834015 0.72888553
  vertex -0.8768782 1.8276155 0.94889355
  vertex -1.0141535 1.8276155 0.72888553
 endloop
endfacet
facet normal 0 0 -1
 outer loop
  vertex -5.974545e-17 3.0547028 0.16621798
  vertex -1.0141535 3.0547028 0.16621798
  vertex -1.0141535 3.150474 0.16621798
 endloop
endfacet
facet normal -1 0 0
 outer loop
  vertex -1.0141535 -1.1578572 0.72888553
  vertex -1.0141535 -2.003688 0.6616943
  vertex -1.0141535 -2.8702502 0.67716897
 endloop
endfacet
facet normal -0 0 -1
 outer loop
  vertex -0.59655064 -2.8711116 0.19782715
  vertex -5.974545e-17 -2.217796 0.19782715
  vertex -5.974545e-17 -2.8711116 0.19782715
 endloop
endfacet
facet normal 0 0.057490144 -0.9983461
 outer loop
  vertex -0.59655064 2.049901 0.10835609
  vertex -1.0141535 2.049901 0.10835609
  vertex -1.0141535 3.0547028 0.16621798
 endloop
endfacet
facet normal -1 0 0
 outer loop
  vertex -0.59655064 1.1305652 0.08345549
  vertex -0.59655064 1.2175575 0.38481626
  vertex -0.59655064 1.3604165 0.55344594
 endloop
endfacet
facet normal -1 0 0
 outer loop
  vertex -0.59655064 1.3604165 0.55344594
  vertex -0.59655064 1.8267537 0.55344594
  vertex -0.59655064 2.0099964 0.36773703
 endloop
endfacet
facet normal -1 0 0
 outer loop
  vertex -0.59655064 2.0099964 0.36773703
  vertex -0.59655064 2.049901 0.10835609
  vertex -0.59655064 1.1305652 0.08345549
 endloop
endfacet
facet normal -1 0 0
 outer loop
  vertex -0.59655064 1.3604165 0.55344594
  vertex -0.59655064 2.0099964 0.36773703
  vertex -0.59655064 1.1305652 0.08345549
 endloop
endfacet
facet normal -1 0 0
 outer loop
  vertex -0.59655064 -2.217796 0.19782715
  vertex -0.59655064 -2.1937408 0.4560201
  vertex -0.59655064 -2.003688 0.6616943
 endloop
endfacet
facet normal -1 0 0
 outer loop
  vertex -0.59655064 -2.003688 0.6616943
  vertex -0.59655064 -1.5897478 0.6616943
  vertex -0.59655064 -1.349741 0.41067457
 endloop
endfacet
facet normal -1 0 0
 outer loop
  vertex -0.59655064 -1.349741 0.41067457
  vertex -0.59655064 -1.2904048 0.08345549
  vertex -0.59655064 -2.217796 0.19782715
 endloop
endfacet
facet normal -1 0 0
 outer loop
  vertex -0.59655064 -2.003688 0.6616943
  vertex -0.59655064 -1.349741 0.41067457
  vertex -0.59655064 -2.217796 0.19782715
 endloop
endfacet
facet normal 0 0.05749014 -0.9983461
 outer loop
  vertex -5.974545e-17 2.049901 0.10835609
  vertex -0.59655064 2.049901 0.10835609
  vertex -1.0141535 3.0547028 0.16621798
 endloop
endfacet
facet normal -0 0.6667871 0.7452483
 outer loop
  vertex -5.974545e-17 1.8276155 0.94889355
  vertex -0.8768782 1.8276155 0.94889355
  vertex -0.6539021 1.3391813 1.3859044
 endloop
endfacet
facet normal -0 0 -1
 outer loop
  vertex -5.974545e-17 -2.9561067 0.19782715
  vertex 0.59655064 -2.8711116 0.19782715
  vertex 1.0141535 -2.9561067 0.19782715
 endloop
endfacet
facet normal -0 0 1
 outer loop
  vertex 0.6539021 -0.47404915 1.3859044
  vertex 0.6539021 1.3391813 1.3859044
  vertex -5.974545e-17 1.3391813 1.3859044
 endloop
endfacet
facet normal -0 0 1
 outer loop
  vertex 0.6539021 -0.47404915 1.3859044
  vertex -5.974545e-17 1.3391813 1.3859044
  vertex -5.974545e-17 -0.47404915 1.3859044
 endloop
endfacet
facet normal 0.89075255 0 0.4544887
 outer loop
  vertex 0.6539021 -0.47404915 1.3859044
  vertex 0.8768782 -1.1578572 0.94889355
  vertex 0.8768782 1.3674173 0.94889355
 endloop
endfacet
facet normal 1 0 -0
 outer loop
  vertex 1.0141535 1.3834015 0.72888553
  vertex 1.0141535 1.3604165 0.55344594
  vertex 1.0141535 1.8267537 0.55344594
 endloop
endfacet
facet normal 1 0 0
 outer loop
  vertex 1.0141535 1.3834015 0.72888553
  vertex 1.0141535 1.8267537 0.55344594
  vertex 1.0141535 1.8276155 0.72888553
 endloop
endfacet
facet normal 0.81518346 0.029872097 0.5784321
 outer loop
  vertex 1.0141535 1.8276155 0.72888553
  vertex 1.0141535 3.0515742 0.66567636
  vertex 0.8768782 2.9826188 0.8626993
 endloop
endfacet
facet normal 0.847735 0.03947382 0.5289492
 outer loop
  vertex 1.0141535 1.8276155 0.72888553
  vertex 0.8768782 2.9826188 0.8626993
  vertex 0.8768782 1.8276155 0.94889355
 endloop
endfacet
facet normal 1 0 -0
 outer loop
  vertex 1.0141535 1.8276155 0.72888553
  vertex 1.0141535 1.8267537 0.55344594
  vertex 1.0141535 3.050712 0.55344594
 endloop
endfacet
facet normal 1 0 0
 outer loop
  vertex 1.0141535 1.8276155 0.72888553
  vertex 1.0141535 3.050712 0.55344594
  vertex 1.0141535 3.0515742 0.66567636
 endloop
endfacet
facet normal -0 0.07441992 0.99722695
 outer loop
  vertex 0.8768782 1.8276155 0.94889355
  vertex 0.8768782 2.9826188 0.8626993
  vertex -5.974545e-17 2.9826188 0.8626993
 endloop
endfacet
facet normal 0 0.07441992 0.99722695
 outer loop
  vertex 0.8768782 1.8276155 0.94889355
  vertex -5.974545e-17 2.9826188 0.8626993
  vertex -5.974545e-17 1.8276155 0.94889355
 endloop
endfacet
facet normal 1 0 0
 outer loop
  vertex 1.0141535 -2.003688 0.6616943
  vertex 1.0141535 -1.5897478 0.6616943
  vertex 1.0141535 -1.1578572 0.72888553
 endloop
endfacet
facet normal 1 0 0
 outer loop
  vertex 1.0141535 -3.0074246 0.4351722
  vertex 1.0141535 -2.9561067 0.19782715
  vertex 1.0141535 -2.8711116 0.19782715
 endloop
endfacet
facet normal -0 -0.98395354 -0.17842497
 outer loop
  vertex 0.59655064 -1.349741 0.41067457
  vertex 0.59655064 -1.2904048 0.08345549
  vertex 1.0141535 -1.2904048 0.08345549
 endloop
endfacet
facet normal 0 -0.98395354 -0.17842497
 outer loop
  vertex 0.59655064 -1.349741 0.41067457
  vertex 1.0141535 -1.2904048 0.08345549
  vertex 1.0141535 -1.349741 0.41067457
 endloop
endfacet
facet normal 1 -0 0
 outer loop
  vertex 1.0141535 3.150474 0.16621798
  vertex 1.0141535 3.1744168 0.36773703
  vertex 1.0141535 3.050712 0.36773703
 endloop
endfacet
facet normal 0 0 -1
 outer loop
  vertex 1.0141535 -2.8711116 0.19782715
  vertex 0.59655064 -2.8711116 0.19782715
  vertex 0.59655064 -2.217796 0.19782715
 endloop
endfacet
facet normal 0 0 -1
 outer loop
  vertex 0.59655064 -2.8711116 0.19782715
  vertex -5.974545e-17 -2.9561067 0.19782715
  vertex -5.974545e-17 -2.8711116 0.19782715
 endloop
endfacet
facet normal 0.8483962 -0 0.5293617
 outer loop
  vertex 1.0141535 1.3834015 0.72888553
  vertex 0.8768782 1.8276155 0.94889355
  vertex 0.8768782 1.3674173 0.94889355
 endloop
endfacet
facet normal 1 0 -0
 outer loop
  vertex 1.0141535 -1.1578572 0.72888553
  vertex 1.0141535 -1.349741 0.41067457
  vertex 1.0141535 1.3604165 0.55344594
 endloop
endfacet
facet normal 1 0 0
 outer loop
  vertex 1.0141535 -1.1578572 0.72888553
  vertex 1.0141535 1.3604165 0.55344594
  vertex 1.0141535 1.3834015 0.72888553
 endloop
endfacet
facet normal 0.84839624 0 0.5293618
 outer loop
  vertex 1.0141535 -1.1578572 0.72888553
  vertex 1.0141535 1.3834015 0.72888553
  vertex 0.8768782 1.3674173 0.94889355
 endloop
endfacet
facet normal 0 0 -1
 outer loop
  vertex 1.0141535 -1.5897478 0.6616943
  vertex 1.0141535 -2.003688 0.6616943
  vertex 0.59655064 -2.003688 0.6616943
 endloop
endfacet
facet normal 0 0 -1
 outer loop
  vertex 1.0141535 -1.5897478 0.6616943
  vertex 0.59655064 -2.003688 0.6616943
  vertex 0.59655064 -1.5897478 0.6616943
 endloop
endfacet
facet normal 1 0 0
 outer loop
  vertex 1.0141535 -2.8711116 0.19782715
  vertex 1.0141535 -2.217796 0.19782715
  vertex 1.0141535 -2.1937408 0.4560201
 endloop
endfacet
facet normal 1 0 0
 outer loop
  vertex 1.0141535 -2.1937408 0.4560201
  vertex 1.0141535 -2.003688 0.6616943
  vertex 1.0141535 -2.8702502 0.67716897
 endloop
endfacet
facet normal 0 0.9999705 -0.007681484
 outer loop
  vertex 1.0141535 3.0515742 0.66567636
  vertex 1.0141535 3.050712 0.55344594
  vertex -5.974545e-17 3.050712 0.55344594
 endloop
endfacet
facet normal 0 0.9999705 -0.007681484
 outer loop
  vertex 1.0141535 3.0515742 0.66567636
  vertex -5.974545e-17 3.050712 0.55344594
  vertex -5.974545e-17 3.0515742 0.66567636
 endloop
endfacet
facet normal 0 0 -1
 outer loop
  vertex -5.974545e-17 -2.217796 0.19782715
  vertex 0.59655064 -2.217796 0.19782715
  vertex 0.59655064 -2.8711116 0.19782715
 endloop
endfacet
facet normal 0.6640654 -0.02257048 0.7473337
 outer loop
  vertex 0.8768782 -2.8242795 0.80053735
  vertex 1.0141535 -2.8702502 0.67716897
  vertex 1.0141535 -1.1578572 0.72888553
 endloop
endfacet
facet normal 0.8474557 -0.047075123 0.52877486
 outer loop
  vertex 0.8768782 -2.8242795 0.80053735
  vertex 1.0141535 -1.1578572 0.72888553
  vertex 0.8768782 -1.1578572 0.94889355
 endloop
endfacet
facet normal 1 0 0
 outer loop
  vertex 1.0141535 -1.349741 0.41067457
  vertex 1.0141535 -1.2904048 0.08345549
  vertex 1.0141535 1.2175575 0.38481626
 endloop
endfacet
facet normal 1 0 0
 outer loop
  vertex 1.0141535 2.0099964 0.36773703
  vertex 1.0141535 2.049901 0.10835609
  vertex 1.0141535 3.0547028 0.16621798
 endloop
endfacet
facet normal 1 0 0
 outer loop
  vertex 1.0141535 2.0099964 0.36773703
  vertex 1.0141535 3.0547028 0.16621798
  vertex 1.0141535 3.050712 0.36773703
 endloop
endfacet
facet normal -0 -0.7118175 -0.7023645
 outer loop
  vertex 0.59655064 1.8267537 0.55344594
  vertex 0.59655064 2.0099964 0.36773703
  vertex 1.0141535 2.0099964 0.36773703
 endloop
endfacet
facet normal 0 -0.7118175 -0.7023645
 outer loop
  vertex 0.59655064 1.8267537 0.55344594
  vertex 1.0141535 2.0099964 0.36773703
  vertex 1.0141535 1.8267537 0.55344594
 endloop
endfacet
facet normal 1 0 0
 outer loop
  vertex 1.0141535 1.8267537 0.55344594
  vertex 1.0141535 2.0099964 0.36773703
  vertex 1.0141535 3.050712 0.36773703
 endloop
endfacet
facet normal 1 0 0
 outer loop
  vertex 1.0141535 1.8267537 0.55344594
  vertex 1.0141535 3.050712 0.36773703
  vertex 1.0141535 3.050712 0.55344594
 endloop
endfacet
facet normal 0 1 0
 outer loop
  vertex 1.0141535 3.050712 0.55344594
  vertex 1.0141535 3.050712 0.36773703
  vertex -5.974545e-17 3.050712 0.36773703
 endloop
endfacet
facet normal -0 1 0
 outer loop
  vertex 1.0141535 3.050712 0.55344594
  vertex -5.974545e-17 3.050712 0.36773703
  vertex -5.974545e-17 3.050712 0.55344594
 endloop
endfacet
facet normal -0 -0.98837173 -0.15205656
 outer loop
  vertex 0.59655064 2.0099964 0.36773703
  vertex 0.59655064 2.049901 0.10835609
  vertex 1.0141535 2.049901 0.10835609
 endloop
endfacet
facet normal 0 -0.98837173 -0.15205656
 outer loop
  vertex 0.59655064 2.0099964 0.36773703
  vertex 1.0141535 2.049901 0.10835609
  vertex 1.0141535 2.0099964 0.36773703
 endloop
endfacet
facet normal 1 0 0
 outer loop
  vertex 1.0141535 3.0547028 0.16621798
  vertex 1.0141535 3.150474 0.16621798
  vertex 1.0141535 3.050712 0.36773703
 endloop
endfacet
facet normal -0 0 1
 outer loop
  vertex 1.0141535 3.050712 0.36773703
  vertex -5.974545e-17 3.1744168 0.36773703
  vertex -5.974545e-17 3.050712 0.36773703
 endloop
endfacet
facet normal 1 0 0
 outer loop
  vertex 1.0141535 -1.349741 0.41067457
  vertex 1.0141535 1.2175575 0.38481626
  vertex 1.0141535 1.3604165 0.55344594
 endloop
endfacet
facet normal 1 0 -0
 outer loop
  vertex 1.0141535 -2.8711116 0.4560201
  vertex 1.0141535 -2.8711116 0.19782715
  vertex 1.0141535 -2.1937408 0.4560201
 endloop
endfacet
facet normal 1 0 -0
 outer loop
  vertex 1.0141535 -2.8702502 0.67716897
  vertex 1.0141535 -2.8711116 0.4560201
  vertex 1.0141535 -2.1937408 0.4560201
 endloop
endfacet
facet normal 0 0 -1
 outer loop
  vertex 1.0141535 3.150474 0.16621798
  vertex -5.974545e-17 3.0547028 0.16621798
  vertex -5.974545e-17 3.150474 0.16621798
 endloop
endfacet
facet normal 0 -0.1511834 0.98850566
 outer loop
  vertex 1.0141535 -3.0074246 0.4351722
  vertex 1.0141535 -2.8711116 0.4560201
  vertex -5.974545e-17 -2.8711116 0.4560201
 endloop
endfacet
facet normal 0 -0.1511834 0.98850566
 outer loop
  vertex 1.0141535 -3.0074246 0.4351722
  vertex -5.974545e-17 -2.8711116 0.4560201
  vertex -5.974545e-17 -3.0074246 0.4351722
 endloop
endfacet
facet normal 1 0 -0
 outer loop
  vertex 1.0141535 -2.8711116 0.4560201
  vertex 1.0141535 -3.0074246 0.4351722
  vertex 1.0141535 -2.8711116 0.19782715
 endloop
endfacet
facet normal 0 -0.9774141 -0.21133311
 outer loop
  vertex 1.0141535 -2.9561067 0.19782715
  vertex 1.0141535 -3.0074246 0.4351722
  vertex -5.974545e-17 -3.0074246 0.4351722
 endloop
endfacet
facet normal 0 -0.9774141 -0.21133311
 outer loop
  vertex 1.0141535 -2.9561067 0.19782715
  vertex -5.974545e-17 -3.0074246 0.4351722
  vertex -5.974545e-17 -2.9561067 0.19782715
 endloop
endfacet
facet normal 0 0.9956879 -0.09276595
 outer loop
  vertex 1.0141535 -2.1937408 0.4560201
  vertex 1.0141535 -2.217796 0.19782715
  vertex 0.59655064 -2.217796 0.19782715
 endloop
endfacet
facet normal 0 0.9956879 -0.09276595
 outer loop
  vertex 1.0141535 -2.1937408 0.4560201
  vertex 0.59655064 -2.217796 0.19782715
  vertex 0.59655064 -2.1937408 0.4560201
 endloop
endfacet
facet normal 0 0 -1
 outer loop
  vertex 1.0141535 -2.217796 0.19782715
  vertex 1.0141535 -2.8711116 0.19782715
  vertex 0.59655064 -2.217796 0.19782715
 endloop
endfacet
facet normal 0 0.734448 -0.6786649
 outer loop
  vertex 1.0141535 -2.003688 0.6616943
  vertex 1.0141535 -2.1937408 0.4560201
  vertex 0.59655064 -2.1937408 0.4560201
 endloop
endfacet
facet normal 0 0.734448 -0.6786649
 outer loop
  vertex 1.0141535 -2.003688 0.6616943
  vertex 0.59655064 -2.1937408 0.4560201
  vertex 0.59655064 -2.003688 0.6616943
 endloop
endfacet
facet normal 0 0.7630016 -0.6463965
 outer loop
  vertex 1.0141535 1.3604165 0.55344594
  vertex 1.0141535 1.2175575 0.38481626
  vertex 0.59655064 1.2175575 0.38481626
 endloop
endfacet
facet normal 0 0.7630016 -0.6463965
 outer loop
  vertex 1.0141535 1.3604165 0.55344594
  vertex 0.59655064 1.2175575 0.38481626
  vertex 0.59655064 1.3604165 0.55344594
 endloop
endfacet
facet normal 0 0.9930159 -0.11798135
 outer loop
  vertex 1.0141535 3.1744168 0.36773703
  vertex 1.0141535 3.150474 0.16621798
  vertex -5.974545e-17 3.150474 0.16621798
 endloop
endfacet
facet normal 0 0.9930159 -0.11798135
 outer loop
  vertex 1.0141535 3.1744168 0.36773703
  vertex -5.974545e-17 3.150474 0.16621798
  vertex -5.974545e-17 3.1744168 0.36773703
 endloop
endfacet
facet normal 0 0.057490136 -0.99834603
 outer loop
  vertex 1.0141535 3.0547028 0.16621798
  vertex -5.974545e-17 2.049901 0.10835609
  vertex -5.974545e-17 3.0547028 0.16621798
 endloop
endfacet
facet normal 0 -0.08867604 0.9960605
 outer loop
  vertex -5.974545e-17 -2.8242795 0.80053735
  vertex 0.8768782 -2.8242795 0.80053735
  vertex 0.8768782 -1.1578572 0.94889355
 endloop
endfacet
facet normal 0 -0.08867604 0.9960605
 outer loop
  vertex -5.974545e-17 -2.8242795 0.80053735
  vertex 0.8768782 -1.1578572 0.94889355
  vertex -5.974545e-17 -1.1578572 0.94889355
 endloop
endfacet
facet normal 0 0.96077144 -0.27734134
 outer loop
  vertex 1.0141535 1.2175575 0.38481626
  vertex 1.0141535 1.1305652 0.08345549
  vertex 0.59655064 1.1305652 0.08345549
 endloop
endfacet
facet normal 0 0.96077144 -0.27734134
 outer loop
  vertex 1.0141535 1.2175575 0.38481626
  vertex 0.59655064 1.1305652 0.08345549
  vertex 0.59655064 1.2175575 0.38481626
 endloop
endfacet
facet normal 0 0 -1
 outer loop
  vertex 1.0141535 1.1305652 0.08345549
  vertex 1.0141535 -1.2904048 0.08345549
  vertex 0.59655064 -1.2904048 0.08345549
 endloop
endfacet
facet normal 0 0 -1
 outer loop
  vertex 1.0141535 1.1305652 0.08345549
  vertex 0.59655064 -1.2904048 0.08345549
  vertex 0.59655064 1.1305652 0.08345549
 endloop
endfacet
facet normal 1 0 0
 outer loop
  vertex 1.0141535 -1.2904048 0.08345549
  vertex 1.0141535 1.1305652 0.08345549
  vertex 1.0141535 1.2175575 0.38481626
 endloop
endfacet
facet normal 0 -0.7227843 -0.6910737
 outer loop
  vertex 1.0141535 -1.349741 0.41067457
  vertex 1.0141535 -1.5897478 0.6616943
  vertex 0.59655064 -1.5897478 0.6616943
 endloop
endfacet
facet normal 0 -0.7227843 -0.6910737
 outer loop
  vertex 1.0141535 -1.349741 0.41067457
  vertex 0.59655064 -1.5897478 0.6616943
  vertex 0.59655064 -1.349741 0.41067457
 endloop
endfacet
facet normal 0 0 -1
 outer loop
  vertex 1.0141535 1.8267537 0.55344594
  vertex 1.0141535 1.3604165 0.55344594
  vertex 0.59655064 1.3604165 0.55344594
 endloop
endfacet
facet normal 0 0 -1
 outer loop
  vertex 1.0141535 1.8267537 0.55344594
  vertex 0.59655064 1.3604165 0.55344594
  vertex 0.59655064 1.8267537 0.55344594
 endloop
endfacet
facet normal 0 -0.99999243 0.0038951125
 outer loop
  vertex 1.0141535 -2.8711116 0.4560201
  vertex 1.0141535 -2.8702502 0.67716897
  vertex -5.974545e-17 -2.8702502 0.67716897
 endloop
endfacet
facet normal 0 -0.99999243 0.0038951125
 outer loop
  vertex 1.0141535 -2.8711116 0.4560201
  vertex -5.974545e-17 -2.8702502 0.67716897
  vertex -5.974545e-17 -2.8711116 0.4560201
 endloop
endfacet
facet normal -0 0.9438622 0.3303393
 outer loop
  vertex 0.8768782 2.9826188 0.8626993
  vertex 1.0141535 3.0515742 0.66567636
  vertex -5.974545e-17 3.0515742 0.66567636
 endloop
endfacet
facet normal 0 0.9438622 0.3303393
 outer loop
  vertex 0.8768782 2.9826188 0.8626993
  vertex -5.974545e-17 3.0515742 0.66567636
  vertex -5.974545e-17 2.9826188 0.8626993
 endloop
endfacet
facet normal 0 0.6667871 0.7452483
 outer loop
  vertex 0.6539021 1.3391813 1.3859044
  vertex -5.974545e-17 1.8276155 0.94889355
  vertex -5.974545e-17 1.3391813 1.3859044
 endloop
endfacet
facet normal 0 -0.53850615 0.84262156
 outer loop
  vertex 0.8768782 -1.1578572 0.94889355
  vertex 0.6539021 -0.47404915 1.3859044
  vertex -5.974545e-17 -1.1578572 0.94889355
 endloop
endfacet
facet normal -0 -0 -1
 outer loop
  vertex 1.0141535 -2.9561067 0.19782715
  vertex 0.59655064 -2.8711116 0.19782715
  vertex 1.0141535 -2.8711116 0.19782715
 endloop
endfacet
facet normal 0 -0.9370575 0.3491751
 outer loop
  vertex 1.0141535 -2.8702502 0.67716897
  vertex 0.8768782 -2.8242795 0.80053735
  vertex -5.974545e-17 -2.8242795 0.80053735
 endloop
endfacet
facet normal 0 -0.9370575 0.34917513
 outer loop
  vertex 1.0141535 -2.8702502 0.67716897
  vertex -5.974545e-17 -2.8242795 0.80053735
  vertex -5.974545e-17 -2.8702502 0.67716897
 endloop
endfacet
facet normal 0.8907525 0 0.45448872
 outer loop
  vertex 0.8768782 1.8276155 0.94889355
  vertex 0.6539021 1.3391813 1.3859044
  vertex 0.8768782 1.3674173 0.94889355
 endloop
endfacet
facet normal 0 -0.12239892 -0.99248105
 outer loop
  vertex 0.59655064 -1.2904048 0.08345549
  vertex 0.59655064 -2.217796 0.19782715
  vertex -5.974545e-17 -1.2904048 0.08345549
 endloop
endfacet
facet normal 0.89075255 -0 0.4544887
 outer loop
  vertex 0.6539021 1.3391813 1.3859044
  vertex 0.6539021 -0.47404915 1.3859044
  vertex 0.8768782 1.3674173 0.94889355
 endloop
endfacet
facet normal 0 0.027075496 -0.99963343
 outer loop
  vertex 0.59655064 2.049901 0.10835609
  vertex 0.59655064 1.1305652 0.08345549
  vertex -5.974545e-17 1.1305652 0.08345549
 endloop
endfacet
facet normal 0 0.027075496 -0.99963343
 outer loop
  vertex 0.59655064 2.049901 0.10835609
  vertex -5.974545e-17 1.1305652 0.08345549
  vertex -5.974545e-17 2.049901 0.10835609
 endloop
endfacet
facet normal 0 -0.12239892 -0.99248105
 outer loop
  vertex -5.974545e-17 -1.2904048 0.08345549
  vertex 0.59655064 -2.217796 0.19782715
  vertex -5.974545e-17 -2.217796 0.19782715
 endloop
endfacet
facet normal 0 -0.53850615 0.8426216
 outer loop
  vertex 0.6539021 -0.47404915 1.3859044
  vertex -5.974545e-17 -0.47404915 1.3859044
  vertex -5.974545e-17 -1.1578572 0.94889355
 endloop
endfacet
facet normal 1 0 0
 outer loop
  vertex 1.0141535 -1.5897478 0.6616943
  vertex 1.0141535 -1.349741 0.41067457
  vertex 1.0141535 -1.1578572 0.72888553
 endloop
endfacet
facet normal 0.84839624 0 0.5293617
 outer loop
  vertex 0.8768782 -1.1578572 0.94889355
  vertex 1.0141535 -1.1578572 0.72888553
  vertex 0.8768782 1.3674173 0.94889355
 endloop
endfacet
facet normal 0 0 -1
 outer loop
  vertex 0.59655064 -1.2904048 0.08345549
  vertex -5.974545e-17 -1.2904048 0.08345549
  vertex -5.974545e-17 1.1305652 0.08345549
 endloop
endfacet
facet normal -0 -0 -1
 outer loop
  vertex 0.59655064 -1.2904048 0.08345549
  vertex -5.974545e-17 1.1305652 0.08345549
  vertex 0.59655064 1.1305652 0.08345549
 endloop
endfacet
facet normal 0 0 1
 outer loop
  vertex -5.974545e-17 3.1744168 0.36773703
  vertex 1.0141535 3.050712 0.36773703
  vertex 1.0141535 3.1744168 0.36773703
 endloop
endfacet
facet normal 0.84839624 0 0.5293617
 outer loop
  vertex 1.0141535 1.3834015 0.72888553
  vertex 1.0141535 1.8276155 0.72888553
  vertex 0.8768782 1.8276155 0.94889355
 endloop
endfacet
facet normal -0 0 -1
 outer loop
  vertex -5.974545e-17 3.0547028 0.16621798
  vertex 1.0141535 3.150474 0.16621798
  vertex 1.0141535 3.0547028 0.16621798
 endloop
endfacet
facet normal 1 0 -0
 outer loop
  vertex 1.0141535 -1.1578572 0.72888553
  vertex 1.0141535 -2.8702502 0.67716897
  vertex 1.0141535 -2.003688 0.6616943
 endloop
endfacet
facet normal 0 0 -1
 outer loop
  vertex 0.59655064 -2.8711116 0.19782715
  vertex -5.974545e-17 -2.8711116 0.19782715
  vertex -5.974545e-17 -2.217796 0.19782715
 endloop
endfacet
facet normal 0 0.057490144 -0.9983461
 outer loop
  vertex 0.59655064 2.049901 0.10835609
  vertex 1.0141535 3.0547028 0.16621798
  vertex 1.0141535 2.049901 0.10835609
 endloop
endfacet
facet normal 1 0 0
 outer loop
  vertex 0.59655064 1.3604165 0.55344594
  vertex 0.59655064 1.2175575 0.38481626
  vertex 0.59655064 1.1305652 0.08345549
 endloop
endfacet
facet normal 1 0 0
 outer loop
  vertex 0.59655064 1.1305652 0.08345549
  vertex 0.59655064 2.049901 0.10835609
  vertex 0.59655064 2.0099964 0.36773703
 endloop
endfacet
facet normal 1 -0 0
 outer loop
  vertex 0.59655064 2.0099964 0.36773703
  vertex 0.59655064 1.8267537 0.55344594
  vertex 0.59655064 1.3604165 0.55344594
 endloop
endfacet
facet normal 1 0 0
 outer loop
  vertex 0.59655064 1.1305652 0.08345549
  vertex 0.59655064 2.0099964 0.36773703
  vertex 0.59655064 1.3604165 0.55344594
 endloop
endfacet
facet normal 1 0 0
 outer loop
  vertex 0.59655064 -2.003688 0.6616943
  vertex 0.59655064 -2.1937408 0.4560201
  vertex 0.59655064 -2.217796 0.19782715
 endloop
endfacet
facet normal 1 0 0
 outer loop
  vertex 0.59655064 -2.217796 0.19782715
  vertex 0.59655064 -1.2904048 0.08345549
  vertex 0.59655064 -1.349741 0.41067457
 endloop
endfacet
facet normal 1 -0 0
 outer loop
  vertex 0.59655064 -1.349741 0.41067457
  vertex 0.59655064 -1.5897478 0.6616943
  vertex 0.59655064 -2.003688 0.6616943
 endloop
endfacet
facet normal 1 0 0
 outer loop
  vertex 0.59655064 -2.217796 0.19782715
  vertex 0.59655064 -1.349741 0.41067457
  vertex 0.59655064 -2.003688 0.6616943
 endloop
endfacet
facet normal 0 0.05749014 -0.9983461
 outer loop
  vertex -5.974545e-17 2.049901 0.10835609
  vertex 1.0141535 3.0547028 0.16621798
  vertex 0.59655064 2.049901 0.10835609
 endloop
endfacet
facet normal 0 0.6667871 0.74524826
 outer loop
  vertex -5.974545e-17 1.8276155 0.94889355
  vertex 0.6539021 1.3391813 1.3859044
  vertex 0.8768782 1.8276155 0.94889355
 endloop
endfacet
facet normal 0 1 -1.1675029e-06
 outer loop
  vertex -0.9718675 1.9689578 0.45427984
  vertex -0.74296457 1.9689578 0.45427984
  vertex -0.74296457 1.9689574 0.14796123
 endloop
endfacet
facet normal 0 1 -1.1675029e-06
 outer loop
  vertex -0.9718675 1.9689578 0.45427984
  vertex -0.74296457 1.9689574 0.14796123
  vertex -0.9718675 1.9689574 0.14796123
 endloop
endfacet
facet normal 0 0.7071069 -0.70710665
 outer loop
  vertex -0.9718675 1.9689574 0.14796123
  vertex -0.74296457 1.9689574 0.14796123
  vertex -0.74296457 1.7523577 -0.06863856
 endloop
endfacet
facet normal 0 0.7071069 -0.70710665
 outer loop
  vertex -0.9718675 1.9689574 0.14796123
  vertex -0.74296457 1.7523577 -0.06863856
  vertex -0.9718675 1.7523577 -0.06863856
 endloop
endfacet
facet normal 0 1.9458389e-07 -1
 outer loop
  vertex -0.9718675 1.7523577 -0.06863856
  vertex -0.74296457 1.7523577 -0.06863856
  vertex -0.74296457 1.4460392 -0.06863862
 endloop
endfacet
facet normal 0 1.9458389e-07 -1
 outer loop
  vertex -0.9718675 1.7523577 -0.06863856
  vertex -0.74296457 1.4460392 -0.06863862
  vertex -0.9718675 1.4460392 -0.06863862
 endloop
endfacet
facet normal -0 -0.7071069 -0.7071067
 outer loop
  vertex -0.9718675 1.4460392 -0.06863862
  vertex -0.74296457 1.4460392 -0.06863862
  vertex -0.74296457 1.2294394 0.14796124
 endloop
endfacet
facet normal -4.6031342e-08 -0.7071068 -0.70710665
 outer loop
  vertex -0.9718675 1.4460392 -0.06863862
  vertex -0.74296457 1.2294394 0.14796124
  vertex -0.9718675 1.2294394 0.14796126
 endloop
endfacet
facet normal -0 -1 -0
 outer loop
  vertex -0.9718675 1.2294394 0.14796126
  vertex -0.74296457 1.2294394 0.14796124
  vertex -0.74296457 1.2294394 0.45427972
 endloop
endfacet
facet normal 0 -1 -0
 outer loop
  vertex -0.9718675 1.2294394 0.14796126
  vertex -0.74296457 1.2294394 0.45427972
  vertex -0.9718675 1.2294394 0.45427972
 endloop
endfacet
facet normal 0 -0.70710707 0.7071065
 outer loop
  vertex -0.9718675 1.2294394 0.45427972
  vertex -0.74296457 1.2294394 0.45427972
  vertex -0.74296457 1.4460392 0.6708797
 endloop
endfacet
facet normal 0 -0.70710707 0.7071065
 outer loop
  vertex -0.9718675 1.2294394 0.45427972
  vertex -0.74296457 1.4460392 0.6708797
  vertex -0.9718675 1.4460392 0.6708797
 endloop
endfacet
facet normal 1 0 0
 outer loop
  vertex -0.74296457 1.7523577 -0.06863856
  vertex -0.74296457 1.9689574 0.14796123
  vertex -0.74296457 1.9689578 0.45427984
 endloop
endfacet
facet normal 1 0 0
 outer loop
  vertex -0.74296457 1.9689578 0.45427984
  vertex -0.74296457 1.7523576 0.6708796
  vertex -0.74296457 1.4460392 0.6708797
 endloop
endfacet
facet normal 1 0 0
 outer loop
  vertex -0.74296457 1.4460392 0.6708797
  vertex -0.74296457 1.2294394 0.45427972
  vertex -0.74296457 1.2294394 0.14796124
 endloop
endfacet
facet normal 1 0 0
 outer loop
  vertex -0.74296457 1.2294394 0.14796124
  vertex -0.74296457 1.4460392 -0.06863862
  vertex -0.74296457 1.7523577 -0.06863856
 endloop
endfacet
facet normal 1 0 0
 outer loop
  vertex -0.74296457 1.7523577 -0.06863856
  vertex -0.74296457 1.9689578 0.45427984
  vertex -0.74296457 1.4460392 0.6708797
 endloop
endfacet
facet normal 1 0 -0
 outer loop
  vertex -0.74296457 1.4460392 0.6708797
  vertex -0.74296457 1.2294394 0.14796124
  vertex -0.74296457 1.7523577 -0.06863856
 endloop
endfacet
facet normal 0 3.891679e-07 1
 outer loop
  vertex -0.9718675 1.4460392 0.6708797
  vertex -0.74296457 1.4460392 0.6708797
  vertex -0.74296457 1.7523576 0.6708796
 endloop
endfacet
facet normal -0 3.891679e-07 1
 outer loop
  vertex -0.9718675 1.4460392 0.6708797
  vertex -0.74296457 1.7523576 0.6708796
  vertex -0.9718675 1.7523576 0.6708796
 endloop
endfacet
facet normal 0 0.7071061 0.7071075
 outer loop
  vertex -0.9718675 1.7523576 0.6708796
  vertex -0.74296457 1.7523576 0.6708796
  vertex -0.74296457 1.9689578 0.45427984
 endloop
endfacet
facet normal -0 0.7071061 0.7071075
 outer loop
  vertex -0.9718675 1.7523576 0.6708796
  vertex -0.74296457 1.9689578 0.45427984
  vertex -0.9718675 1.9689578 0.45427984
 endloop
endfacet
facet normal -1 0 0
 outer loop
  vertex -0.9718675 1.7523576 0.6708796
  vertex -0.9718675 1.9689578 0.45427984
  vertex -0.9718675 1.9689574 0.14796123
 endloop
endfacet
facet normal -1 0 0
 outer loop
  vertex -0.9718675 1.9689574 0.14796123
  vertex -0.9718675 1.7523577 -0.06863856
  vertex -0.9718675 1.4460392 -0.06863862
 endloop
endfacet
facet normal -1 0 0
 outer loop
  vertex -0.9718675 1.4460392 -0.06863862
  vertex -0.9718675 1.2294394 0.14796126
  vertex -0.9718675 1.2294394 0.45427972
 endloop
endfacet
facet normal -1 -0 0
 outer loop
  vertex -0.9718675 1.2294394 0.45427972
  vertex -0.9718675 1.4460392 0.6708797
  vertex -0.9718675 1.7523576 0.6708796
 endloop
endfacet
facet normal -1 0 0
 outer loop
  vertex -0.9718675 1.7523576 0.6708796
  vertex -0.9718675 1.9689574 0.14796123
  vertex -0.9718675 1.4460392 -0.06863862
 endloop
endfacet
facet normal -1 0 -0
 outer loop
  vertex -0.9718675 1.4460392 -0.06863862
  vertex -0.9718675 1.2294394 0.45427972
  vertex -0.9718675 1.7523576 0.6708796
 endloop
endfacet
facet normal 0 1 -1.1675029e-06
 outer loop
  vertex -0.9718675 -1.4217862 0.45605034
  vertex -0.74296457 -1.4217862 0.45605034
  vertex -0.74296457 -1.4217865 0.14973173
 endloop
endfacet
facet normal 0 1 -1.1675029e-06
 outer loop
  vertex -0.9718675 -1.4217862 0.45605034
  vertex -0.74296457 -1.4217865 0.14973173
  vertex -0.9718675 -1.4217865 0.14973173
 endloop
endfacet
facet normal 0 0.7071071 -0.7071064
 outer loop
  vertex -0.9718675 -1.4217865 0.14973173
  vertex -0.74296457 -1.4217865 0.14973173
  vertex -0.74296457 -1.6383861 -0.06686807
 endloop
endfacet
facet normal 0 0.7071071 -0.7071064
 outer loop
  vertex -0.9718675 -1.4217865 0.14973173
  vertex -0.74296457 -1.6383861 -0.06686807
  vertex -0.9718675 -1.6383861 -0.06686807
 endloop
endfacet
facet normal 0 1.945838e-07 -1
 outer loop
  vertex -0.9718675 -1.6383861 -0.06686807
  vertex -0.74296457 -1.6383861 -0.06686807
  vertex -0.74296457 -1.9447048 -0.06686813
 endloop
endfacet
facet normal 0 1.945838e-07 -1
 outer loop
  vertex -0.9718675 -1.6383861 -0.06686807
  vertex -0.74296457 -1.9447048 -0.06686813
  vertex -0.9718675 -1.9447048 -0.06686813
 endloop
endfacet
facet normal -0 -0.707107 -0.7071065
 outer loop
  vertex -0.9718675 -1.9447048 -0.06686813
  vertex -0.74296457 -1.9447048 -0.06686813
  vertex -0.74296457 -2.1613045 0.14973174
 endloop
endfacet
facet normal -9.206266e-08 -0.7071071 -0.7071065
 outer loop
  vertex -0.9718675 -1.9447048 -0.06686813
  vertex -0.74296457 -2.1613045 0.14973174
  vertex -0.9718675 -2.1613045 0.14973177
 endloop
endfacet
facet normal -0 -1 -0
 outer loop
  vertex -0.9718675 -2.1613045 0.14973177
  vertex -0.74296457 -2.1613045 0.14973174
  vertex -0.74296457 -2.1613045 0.45605022
 endloop
endfacet
facet normal 0 -1 -0
 outer loop
  vertex -0.9718675 -2.1613045 0.14973177
  vertex -0.74296457 -2.1613045 0.45605022
  vertex -0.9718675 -2.1613045 0.45605022
 endloop
endfacet
facet normal 0 -0.7071072 0.70710623
 outer loop
  vertex -0.9718675 -2.1613045 0.45605022
  vertex -0.74296457 -2.1613045 0.45605022
  vertex -0.74296457 -1.9447048 0.6726502
 endloop
endfacet
facet normal 0 -0.7071072 0.70710623
 outer loop
  vertex -0.9718675 -2.1613045 0.45605022
  vertex -0.74296457 -1.9447048 0.6726502
  vertex -0.9718675 -1.9447048 0.6726502
 endloop
endfacet
facet normal 1 0 0
 outer loop
  vertex -0.74296457 -1.6383861 -0.06686807
  vertex -0.74296457 -1.4217865 0.14973173
  vertex -0.74296457 -1.4217862 0.45605034
 endloop
endfacet
facet normal 1 0 0
 outer loop
  vertex -0.74296457 -1.4217862 0.45605034
  vertex -0.74296457 -1.6383862 0.6726501
  vertex -0.74296457 -1.9447048 0.6726502
 endloop
endfacet
facet normal 1 0 0
 outer loop
  vertex -0.74296457 -1.9447048 0.6726502
  vertex -0.74296457 -2.1613045 0.45605022
  vertex -0.74296457 -2.1613045 0.14973174
 endloop
endfacet
facet normal 1 0 0
 outer loop
  vertex -0.74296457 -2.1613045 0.14973174
  vertex -0.74296457 -1.9447048 -0.06686813
  vertex -0.74296457 -1.6383861 -0.06686807
 endloop
endfacet
facet normal 1 0 0
 outer loop
  vertex -0.74296457 -1.6383861 -0.06686807
  vertex -0.74296457 -1.4217862 0.45605034
  vertex -0.74296457 -1.9447048 0.6726502
 endloop
endfacet
facet normal 1 0 -0
 outer loop
  vertex -0.74296457 -1.9447048 0.6726502
  vertex -0.74296457 -2.1613045 0.14973174
  vertex -0.74296457 -1.6383861 -0.06686807
 endloop
endfacet
facet normal 0 3.8916778e-07 1
 outer loop
  vertex -0.9718675 -1.9447048 0.6726502
  vertex -0.74296457 -1.9447048 0.6726502
  vertex -0.74296457 -1.6383862 0.6726501
 endloop
endfacet
facet normal -0 3.8916778e-07 1
 outer loop
  vertex -0.9718675 -1.9447048 0.6726502
  vertex -0.74296457 -1.6383862 0.6726501
  vertex -0.9718675 -1.6383862 0.6726501
 endloop
endfacet
facet normal 0 0.7071063 0.7071073
 outer loop
  vertex -0.9718675 -1.6383862 0.6726501
  vertex -0.74296457 -1.6383862 0.6726501
  vertex -0.74296457 -1.4217862 0.45605034
 endloop
endfacet
facet normal -0 0.7071063 0.7071073
 outer loop
  vertex -0.9718675 -1.6383862 0.6726501
  vertex -0.74296457 -1.4217862 0.45605034
  vertex -0.9718675 -1.4217862 0.45605034
 endloop
endfacet
facet normal -1 0 0
 outer loop
  vertex -0.9718675 -1.6383862 0.6726501
  vertex -0.9718675 -1.4217862 0.45605034
  vertex -0.9718675 -1.4217865 0.14973173
 endloop
endfacet
facet normal -1 0 0
 outer loop
  vertex -0.9718675 -1.4217865 0.14973173
  vertex -0.9718675 -1.6383861 -0.06686807
  vertex -0.9718675 -1.9447048 -0.06686813
 endloop
endfacet
facet normal -1 0 0
 outer loop
  vertex -0.9718675 -1.9447048 -0.06686813
  vertex -0.9718675 -2.1613045 0.14973177
  vertex -0.9718675 -2.1613045 0.45605022
 endloop
endfacet
facet normal -1 -0 0
 outer loop
  vertex -0.9718675 -2.1613045 0.45605022
  vertex -0.9718675 -1.9447048 0.6726502
  vertex -0.9718675 -1.6383862 0.6726501
 endloop
endfacet
facet normal -1 0 0
 outer loop
  vertex -0.9718675 -1.6383862 0.6726501
  vertex -0.9718675 -1.4217865 0.14973173
  vertex -0.9718675 -1.9447048 -0.06686813
 endloop
endfacet
facet normal -1 0 -0
 outer loop
  vertex -0.9718675 -1.9447048 -0.06686813
  vertex -0.9718675 -2.1613045 0.45605022
  vertex -0.9718675 -1.6383862 0.6726501
 endloop
endfacet
facet normal 0 1 -1.1675029e-06
 outer loop
  vertex 0.9718675 1.9689578 0.45427984
  vertex 0.9718675 1.9689574 0.14796123
  vertex 0.74296457 1.9689574 0.14796123
 endloop
endfacet
facet normal 0 1 -1.1675029e-06
 outer loop
  vertex 0.9718675 1.9689578 0.45427984
  vertex 0.74296457 1.9689574 0.14796123
  vertex 0.74296457 1.9689578 0.45427984
 endloop
endfacet
facet normal 0 0.7071069 -0.70710665
 outer loop
  vertex 0.9718675 1.9689574 0.14796123
  vertex 0.9718675 1.7523577 -0.06863856
  vertex 0.74296457 1.7523577 -0.06863856
 endloop
endfacet
facet normal 0 0.7071069 -0.70710665
 outer loop
  vertex 0.9718675 1.9689574 0.14796123
  vertex 0.74296457 1.7523577 -0.06863856
  vertex 0.74296457 1.9689574 0.14796123
 endloop
endfacet
facet normal 0 1.9458389e-07 -1
 outer loop
  vertex 0.9718675 1.7523577 -0.06863856
  vertex 0.9718675 1.4460392 -0.06863862
  vertex 0.74296457 1.4460392 -0.06863862
 endloop
endfacet
facet normal 0 1.9458389e-07 -1
 outer loop
  vertex 0.9718675 1.7523577 -0.06863856
  vertex 0.74296457 1.4460392 -0.06863862
  vertex 0.74296457 1.7523577 -0.06863856
 endloop
endfacet
facet normal 4.6031342e-08 -0.7071068 -0.70710665
 outer loop
  vertex 0.9718675 1.4460392 -0.06863862
  vertex 0.9718675 1.2294394 0.14796126
  vertex 0.74296457 1.2294394 0.14796124
 endloop
endfacet
facet normal 0 -0.7071069 -0.7071067
 outer loop
  vertex 0.9718675 1.4460392 -0.06863862
  vertex 0.74296457 1.2294394 0.14796124
  vertex 0.74296457 1.4460392 -0.06863862
 endloop
endfacet
facet normal 0 -1 0
 outer loop
  vertex 0.9718675 1.2294394 0.14796126
  vertex 0.9718675 1.2294394 0.45427972
  vertex 0.74296457 1.2294394 0.45427972
 endloop
endfacet
facet normal 0 -1 0
 outer loop
  vertex 0.9718675 1.2294394 0.14796126
  vertex 0.74296457 1.2294394 0.45427972
  vertex 0.74296457 1.2294394 0.14796124
 endloop
endfacet
facet normal 0 -0.70710707 0.7071065
 outer loop
  vertex 0.9718675 1.2294394 0.45427972
  vertex 0.9718675 1.4460392 0.6708797
  vertex 0.74296457 1.4460392 0.6708797
 endloop
endfacet
facet normal 0 -0.70710707 0.7071065
 outer loop
  vertex 0.9718675 1.2294394 0.45427972
  vertex 0.74296457 1.4460392 0.6708797
  vertex 0.74296457 1.2294394 0.45427972
 endloop
endfacet
facet normal -1 0 0
 outer loop
  vertex 0.74296457 1.9689578 0.45427984
  vertex 0.74296457 1.9689574 0.14796123
  vertex 0.74296457 1.7523577 -0.06863856
 endloop
endfacet
facet normal -1 0 0
 outer loop
  vertex 0.74296457 1.7523577 -0.06863856
  vertex 0.74296457 1.4460392 -0.06863862
  vertex 0.74296457 1.2294394 0.14796124
 endloop
endfacet
facet normal -1 0 -0
 outer loop
  vertex 0.74296457 1.2294394 0.14796124
  vertex 0.74296457 1.2294394 0.45427972
  vertex 0.74296457 1.4460392 0.6708797
 endloop
endfacet
facet normal -1 0 0
 outer loop
  vertex 0.74296457 1.4460392 0.6708797
  vertex 0.74296457 1.7523576 0.6708796
  vertex 0.74296457 1.9689578 0.45427984
 endloop
endfacet
facet normal -1 0 0
 outer loop
  vertex 0.74296457 1.9689578 0.45427984
  vertex 0.74296457 1.7523577 -0.06863856
  vertex 0.74296457 1.2294394 0.14796124
 endloop
endfacet
facet normal -1 -0 0
 outer loop
  vertex 0.74296457 1.2294394 0.14796124
  vertex 0.74296457 1.4460392 0.6708797
  vertex 0.74296457 1.9689578 0.45427984
 endloop
endfacet
facet normal -0 3.891679e-07 1
 outer loop
  vertex 0.9718675 1.4460392 0.6708797
  vertex 0.9718675 1.7523576 0.6708796
  vertex 0.74296457 1.7523576 0.6708796
 endloop
endfacet
facet normal 0 3.891679e-07 1
 outer loop
  vertex 0.9718675 1.4460392 0.6708797
  vertex 0.74296457 1.7523576 0.6708796
  vertex 0.74296457 1.4460392 0.6708797
 endloop
endfacet
facet normal -0 0.7071061 0.7071075
 outer loop
  vertex 0.9718675 1.7523576 0.6708796
  vertex 0.9718675 1.9689578 0.45427984
  vertex 0.74296457 1.9689578 0.45427984
 endloop
endfacet
facet normal 0 0.7071061 0.7071075
 outer loop
  vertex 0.9718675 1.7523576 0.6708796
  vertex 0.74296457 1.9689578 0.45427984
  vertex 0.74296457 1.7523576 0.6708796
 endloop
endfacet
facet normal 1 0 0
 outer loop
  vertex 0.9718675 1.9689574 0.14796123
  vertex 0.9718675 1.9689578 0.45427984
  vertex 0.9718675 1.7523576 0.6708796
 endloop
endfacet
facet normal 1 -0 0
 outer loop
  vertex 0.9718675 1.7523576 0.6708796
  vertex 0.9718675 1.4460392 0.6708797
  vertex 0.9718675 1.2294394 0.45427972
 endloop
endfacet
facet normal 1 0 -0
 outer loop
  vertex 0.9718675 1.2294394 0.45427972
  vertex 0.9718675 1.2294394 0.14796126
  vertex 0.9718675 1.4460392 -0.06863862
 endloop
endfacet
facet normal 1 0 0
 outer loop
  vertex 0.9718675 1.4460392 -0.06863862
  vertex 0.9718675 1.7523577 -0.06863856
  vertex 0.9718675 1.9689574 0.14796123
 endloop
endfacet
facet normal 1 -0 0
 outer loop
  vertex 0.9718675 1.9689574 0.14796123
  vertex 0.9718675 1.7523576 0.6708796
  vertex 0.9718675 1.2294394 0.45427972
 endloop
endfacet
facet normal 1 0 0
 outer loop
  vertex 0.9718675 1.2294394 0.45427972
  vertex 0.9718675 1.4460392 -0.06863862
  vertex 0.9718675 1.9689574 0.14796123
 endloop
endfacet
facet normal 0 1 -1.1675029e-06
 outer loop
  vertex 0.9718675 -1.4217862 0.45605034
  vertex 0.9718675 -1.4217865 0.14973173
  vertex 0.74296457 -1.4217865 0.14973173
 endloop
endfacet
facet normal 0 1 -1.1675029e-06
 outer loop
  vertex 0.9718675 -1.4217862 0.45605034
  vertex 0.74296457 -1.4217865 0.14973173
  vertex 0.74296457 -1.4217862 0.45605034
 endloop
endfacet
facet normal 0 0.7071071 -0.7071064
 outer loop
  vertex 0.9718675 -1.4217865 0.14973173
  vertex 0.9718675 -1.6383861 -0.06686807
  vertex 0.74296457 -1.6383861 -0.06686807
 endloop
endfacet
facet normal 0 0.7071071 -0.7071064
 outer loop
  vertex 0.9718675 -1.4217865 0.14973173
  vertex 0.74296457 -1.6383861 -0.06686807
  vertex 0.74296457 -1.4217865 0.14973173
 endloop
endfacet
facet normal 0 1.945838e-07 -1
 outer loop
  vertex 0.9718675 -1.6383861 -0.06686807
  vertex 0.9718675 -1.9447048 -0.06686813
  vertex 0.74296457 -1.9447048 -0.06686813
 endloop
endfacet
facet normal 0 1.945838e-07 -1
 outer loop
  vertex 0.9718675 -1.6383861 -0.06686807
  vertex 0.74296457 -1.9447048 -0.06686813
  vertex 0.74296457 -1.6383861 -0.06686807
 endloop
endfacet
facet normal 9.206266e-08 -0.70710707 -0.7071065
 outer loop
  vertex 0.9718675 -1.9447048 -0.06686813
  vertex 0.9718675 -2.1613045 0.14973177
  vertex 0.74296457 -2.1613045 0.14973174
 endloop
endfacet
facet normal 0 -0.707107 -0.7071065
 outer loop
  vertex 0.9718675 -1.9447048 -0.06686813
  vertex 0.74296457 -2.1613045 0.14973174
  vertex 0.74296457 -1.9447048 -0.06686813
 endloop
endfacet
facet normal 0 -1 0
 outer loop
  vertex 0.9718675 -2.1613045 0.14973177
  vertex 0.9718675 -2.1613045 0.45605022
  vertex 0.74296457 -2.1613045 0.45605022
 endloop
endfacet
facet normal 0 -1 0
 outer loop
  vertex 0.9718675 -2.1613045 0.14973177
  vertex 0.74296457 -2.1613045 0.45605022
  vertex 0.74296457 -2.1613045 0.14973174
 endloop
endfacet
facet normal 0 -0.7071072 0.70710623
 outer loop
  vertex 0.9718675 -2.1613045 0.45605022
  vertex 0.9718675 -1.9447048 0.6726502
  vertex 0.74296457 -1.9447048 0.6726502
 endloop
endfacet
facet normal 0 -0.7071072 0.70710623
 outer loop
  vertex 0.9718675 -2.1613045 0.45605022
  vertex 0.74296457 -1.9447048 0.6726502
  vertex 0.74296457 -2.1613045 0.45605022
 endloop
endfacet
facet normal -1 0 0
 outer loop
  vertex 0.74296457 -1.4217862 0.45605034
  vertex 0.74296457 -1.4217865 0.14973173
  vertex 0.74296457 -1.6383861 -0.06686807
 endloop
endfacet
facet normal -1 0 0
 outer loop
  vertex 0.74296457 -1.6383861 -0.06686807
  vertex 0.74296457 -1.9447048 -0.06686813
  vertex 0.74296457 -2.1613045 0.14973174
 endloop
endfacet
facet normal -1 0 -0
 outer loop
  vertex 0.74296457 -2.1613045 0.14973174
  vertex 0.74296457 -2.1613045 0.45605022
  vertex 0.74296457 -1.9447048 0.6726502
 endloop
endfacet
facet normal -1 0 0
 outer loop
  vertex 0.74296457 -1.9447048 0.6726502
  vertex 0.74296457 -1.6383862 0.6726501
  vertex 0.74296457 -1.4217862 0.45605034
 endloop
endfacet
facet normal -1 0 0
 outer loop
  vertex 0.74296457 -1.4217862 0.45605034
  vertex 0.74296457 -1.6383861 -0.06686807
  vertex 0.74296457 -2.1613045 0.14973174
 endloop
endfacet
facet normal -1 -0 0
 outer loop
  vertex 0.74296457 -2.1613045 0.14973174
  vertex 0.74296457 -1.9447048 0.6726502
  vertex 0.74296457 -1.4217862 0.45605034
 endloop
endfacet
facet normal -0 3.8916778e-07 1
 outer loop
  vertex 0.9718675 -1.9447048 0.6726502
  vertex 0.9718675 -1.6383862 0.6726501
  vertex 0.74296457 -1.6383862 0.6726501
 endloop
endfacet
facet normal 0 3.8916778e-07 1
 outer loop
  vertex 0.9718675 -1.9447048 0.6726502
  vertex 0.74296457 -1.6383862 0.6726501
  vertex 0.74296457 -1.9447048 0.6726502
 endloop
endfacet
facet normal -0 0.7071063 0.7071073
 outer loop
  vertex 0.9718675 -1.6383862 0.6726501
  vertex 0.9718675 -1.4217862 0.45605034
  vertex 0.74296457 -1.4217862 0.45605034
 endloop
endfacet
facet normal 0 0.7071063 0.7071073
 outer loop
  vertex 0.9718675 -1.6383862 0.6726501
  vertex 0.74296457 -1.4217862 0.45605034
  vertex 0.74296457 -1.6383862 0.6726501
 endloop
endfacet
facet normal 1 0 0
 outer loop
  vertex 0.9718675 -1.4217865 0.14973173
  vertex 0.9718675 -1.4217862 0.45605034
  vertex 0.9718675 -1.6383862 0.6726501
 endloop
endfacet
facet normal 1 -0 0
 outer loop
  vertex 0.9718675 -1.6383862 0.6726501
  vertex 0.9718675 -1.9447048 0.6726502
  vertex 0.9718675 -2.1613045 0.45605022
 endloop
endfacet
facet normal 1 0 -0
 outer loop
  vertex 0.9718675 -2.1613045 0.45605022
  vertex 0.9718675 -2.1613045 0.14973177
  vertex 0.9718675 -1.9447048 -0.06686813
 endloop
endfacet
facet normal 1 0 0
 outer loop
  vertex 0.9718675 -1.9447048 -0.06686813
  vertex 0.9718675 -1.6383861 -0.06686807
  vertex 0.9718675 -1.4217865 0.14973173
 endloop
endfacet
facet normal 1 -0 0
 outer loop
  vertex 0.9718675 -1.4217865 0.14973173
  vertex 0.9718675 -1.6383862 0.6726501
  vertex 0.9718675 -2.1613045 0.45605022
 endloop
endfacet
facet normal 1 0 0
 outer loop
  vertex 0.9718675 -2.1613045 0.45605022
  vertex 0.9718675 -1.9447048 -0.06686813
  vertex 0.9718675 -1.4217865 0.14973173
 endloop
endfacet
endsolid 
